<?xml version="1.0" encoding="UTF-8"?>
<svg id="Laag_1" data-name="Laag 1" xmlns="http://www.w3.org/2000/svg" viewBox="0 0 1000 1000">
  <defs>
    <style>
      .cls-1 {
        fill: #132640;
      }

      .cls-2 {
        fill: #fff;
        stroke: #000;
        stroke-miterlimit: 10;
      }
    </style>
  </defs>
  <path class="cls-1" d="M786.07,987h-112l-51.2-100-122.4-240-122.4,240-51.2,100h-112l51.2-100,234.4-460,234.4,460,51.2,100Z"/>
  <circle class="cls-1" cx="500" cy="211" r="185"/>
  <path class="cls-2" d="M477.58,254.58c0-13.42,1.44-25.17,4.34-35.24,2.89-10.07,6.54-18.98,10.94-26.74,4.39-7.75,8.79-14.87,13.19-21.35,4.39-6.48,8.04-12.79,10.94-18.92,2.89-6.13,4.34-12.67,4.34-19.62,0-9.49-3.07-16.55-9.2-21.18-6.14-4.63-14.18-6.94-24.13-6.94-10.88,0-20.31,2.66-28.3,7.99-7.99,5.33-14.53,11-19.62,17.01v-60.42c8.1-6.02,16.78-10.64,26.04-13.89,9.26-3.24,19.56-4.86,30.9-4.86,12.27,0,23.32,1.86,33.16,5.56,9.84,3.71,18.28,8.91,25.35,15.62,7.06,6.72,12.5,14.7,16.32,23.96,3.82,9.26,5.73,19.44,5.73,30.56s-1.62,21.18-4.86,30.21c-3.24,9.03-7.35,17.42-12.33,25.17-4.98,7.76-10.02,15.4-15.1,22.92-5.09,7.52-9.67,15.34-13.71,23.44-4.05,8.11-6.77,17.01-8.16,26.74h-45.83ZM500.5,376.11c-6.72,0-12.85-1.62-18.4-4.86-5.56-3.24-9.96-7.58-13.19-13.02-3.24-5.44-4.86-11.63-4.86-18.58s1.62-13.13,4.86-18.58c3.24-5.44,7.64-9.78,13.19-13.02,5.56-3.24,11.69-4.86,18.4-4.86s13.13,1.62,18.58,4.86c5.44,3.24,9.78,7.58,13.02,13.02,3.24,5.44,4.86,11.63,4.86,18.58s-1.62,13.14-4.86,18.58c-3.24,5.44-7.58,9.78-13.02,13.02-5.44,3.24-11.63,4.86-18.58,4.86Z"/>
  <path class="cls-1" d="M382.59,758.4h-46.62l-21.31-41.62-50.95-99.9-50.95,99.9-21.31,41.62h-46.62l21.31-41.62,97.57-191.47,97.57,191.47,21.31,41.62Z"/>
  <circle class="cls-1" cx="263.52" cy="435.4" r="77"/>
  <path class="cls-2" d="M254.19,453.54c0-5.59.6-10.48,1.81-14.67,1.2-4.19,2.72-7.9,4.55-11.13,1.83-3.23,3.66-6.19,5.49-8.89,1.83-2.7,3.35-5.32,4.55-7.88,1.2-2.55,1.81-5.28,1.81-8.17,0-3.95-1.28-6.89-3.83-8.82-2.55-1.93-5.9-2.89-10.04-2.89-4.53,0-8.45,1.11-11.78,3.32-3.32,2.22-6.05,4.58-8.17,7.08v-25.15c3.37-2.5,6.98-4.43,10.84-5.78,3.85-1.35,8.14-2.02,12.86-2.02,5.11,0,9.71.77,13.8,2.31,4.09,1.54,7.61,3.71,10.55,6.5,2.94,2.8,5.2,6.12,6.79,9.97,1.59,3.86,2.38,8.09,2.38,12.72s-.68,8.82-2.02,12.57c-1.35,3.76-3.06,7.25-5.13,10.48-2.07,3.23-4.17,6.41-6.29,9.54-2.12,3.13-4.02,6.38-5.71,9.76-1.69,3.37-2.82,7.08-3.4,11.13h-19.08ZM263.73,504.12c-2.8,0-5.35-.68-7.66-2.02-2.31-1.35-4.14-3.15-5.49-5.42-1.35-2.26-2.02-4.84-2.02-7.73s.67-5.47,2.02-7.73c1.35-2.26,3.18-4.07,5.49-5.42,2.31-1.35,4.86-2.02,7.66-2.02s5.47.68,7.73,2.02c2.26,1.35,4.07,3.16,5.42,5.42,1.35,2.26,2.02,4.84,2.02,7.73s-.68,5.47-2.02,7.73c-1.35,2.26-3.16,4.07-5.42,5.42-2.27,1.35-4.84,2.02-7.73,2.02Z"/>
  <path class="cls-1" d="M856.31,895.4h-58.27l-26.64-52.03-63.68-124.87-63.68,124.87-26.64,52.03h-58.27l26.64-52.03,121.96-239.34,121.96,239.34,26.64,52.03Z"/>
  <circle class="cls-1" cx="707.47" cy="491.65" r="96.25"/>
  <path class="cls-2" d="M695.81,514.33c0-6.98.75-13.1,2.26-18.34,1.5-5.24,3.4-9.87,5.69-13.91,2.29-4.03,4.58-7.74,6.86-11.11,2.29-3.37,4.18-6.65,5.69-9.85,1.5-3.19,2.26-6.59,2.26-10.21,0-4.94-1.6-8.61-4.79-11.02-3.19-2.41-7.38-3.61-12.56-3.61-5.66,0-10.57,1.39-14.72,4.15-4.16,2.77-7.56,5.72-10.21,8.85v-31.43c4.21-3.13,8.73-5.54,13.55-7.23,4.82-1.69,10.18-2.53,16.08-2.53,6.38,0,12.13.97,17.25,2.89,5.12,1.93,9.51,4.64,13.19,8.13,3.67,3.49,6.5,7.65,8.49,12.47,1.99,4.82,2.98,10.12,2.98,15.9s-.84,11.02-2.53,15.72c-1.69,4.7-3.82,9.06-6.41,13.1-2.59,4.04-5.21,8.01-7.86,11.92-2.65,3.91-5.03,7.98-7.14,12.19-2.11,4.22-3.52,8.85-4.25,13.91h-23.85ZM707.73,577.56c-3.49,0-6.68-.84-9.57-2.53-2.89-1.68-5.18-3.94-6.86-6.77-1.69-2.83-2.53-6.05-2.53-9.67s.84-6.83,2.53-9.67c1.68-2.83,3.97-5.09,6.86-6.77,2.89-1.68,6.08-2.53,9.57-2.53s6.83.84,9.67,2.53c2.83,1.69,5.09,3.95,6.77,6.77,1.69,2.83,2.53,6.05,2.53,9.67s-.84,6.84-2.53,9.67c-1.69,2.83-3.95,5.09-6.77,6.77-2.83,1.69-6.05,2.53-9.67,2.53Z"/>
</svg>