<?xml version="1.0" encoding="UTF-8"?>
<svg id="Laag_1" data-name="Laag 1" xmlns="http://www.w3.org/2000/svg" viewBox="0 0 1000 1000">
  <defs>
    <style>
      .cls-1 {
        fill: #132640;
      }

      .cls-2 {
        fill: #fff;
        stroke: #000;
        stroke-miterlimit: 10;
      }
    </style>
  </defs>
  <path class="cls-1" d="M786.07,987h-112l-51.2-100-122.4-240-122.4,240-51.2,100h-112l51.2-100,234.4-460,234.4,460,51.2,100Z"/>
  <circle class="cls-1" cx="500" cy="211" r="185"/>
  <path class="cls-2" d="M477.58,254.58c0-13.42,1.44-25.17,4.34-35.24,2.89-10.07,6.54-18.98,10.94-26.74,4.39-7.75,8.79-14.87,13.19-21.35,4.39-6.48,8.04-12.79,10.94-18.92,2.89-6.13,4.34-12.67,4.34-19.62,0-9.49-3.07-16.55-9.2-21.18-6.14-4.63-14.18-6.94-24.13-6.94-10.88,0-20.31,2.66-28.3,7.99-7.99,5.33-14.53,11-19.62,17.01v-60.42c8.1-6.02,16.78-10.64,26.04-13.89,9.26-3.24,19.56-4.86,30.9-4.86,12.27,0,23.32,1.86,33.16,5.56,9.84,3.71,18.28,8.91,25.35,15.62,7.06,6.72,12.5,14.7,16.32,23.96,3.82,9.26,5.73,19.44,5.73,30.56s-1.62,21.18-4.86,30.21c-3.24,9.03-7.35,17.42-12.33,25.17-4.98,7.76-10.02,15.4-15.1,22.92-5.09,7.52-9.67,15.34-13.71,23.44-4.05,8.11-6.77,17.01-8.16,26.74h-45.83ZM500.5,376.11c-6.72,0-12.85-1.62-18.4-4.86-5.56-3.24-9.96-7.58-13.19-13.02-3.24-5.44-4.86-11.63-4.86-18.58s1.62-13.13,4.86-18.58c3.24-5.44,7.64-9.78,13.19-13.02,5.56-3.24,11.69-4.86,18.4-4.86s13.13,1.62,18.58,4.86c5.44,3.24,9.78,7.58,13.02,13.02,3.24,5.44,4.86,11.63,4.86,18.58s-1.62,13.14-4.86,18.58c-3.24,5.44-7.58,9.78-13.02,13.02-5.44,3.24-11.63,4.86-18.58,4.86Z"/>
</svg>