<?xml version="1.0" encoding="UTF-8"?>
<svg id="Laag_1" data-name="Laag 1" xmlns="http://www.w3.org/2000/svg" viewBox="0 0 1000 1000">
  <defs>
    <style>
      .cls-1 {
        fill: #132640;
      }

      .cls-2 {
        fill: #fff;
        stroke: #000;
        stroke-miterlimit: 10;
      }
    </style>
  </defs>
  <path class="cls-1" d="M522.44,969.38h-93.24l-42.62-83.25-101.89-199.79-101.89,199.79-42.62,83.25H46.93l42.62-83.25,195.13-382.94,195.13,382.94,42.62,83.25Z"/>
  <circle class="cls-1" cx="284.3" cy="323.38" r="154.01"/>
  <path class="cls-2" d="M266.94,357.95c0-10.62,1.14-19.91,3.43-27.87,2.29-7.96,5.17-15.01,8.65-21.15,3.48-6.13,6.96-11.76,10.44-16.89,3.48-5.12,6.36-10.11,8.65-14.97,2.29-4.85,3.43-10.02,3.43-15.52,0-7.51-2.43-13.09-7.28-16.75-4.85-3.66-11.22-5.49-19.09-5.49-8.61,0-16.07,2.11-22.38,6.32-6.32,4.21-11.49,8.7-15.52,13.46v-47.78c6.41-4.76,13.27-8.42,20.6-10.98,7.32-2.56,15.47-3.84,24.44-3.84,9.7,0,18.44,1.47,26.23,4.39,7.78,2.93,14.46,7.05,20.05,12.36,5.58,5.31,9.89,11.63,12.91,18.95,3.02,7.33,4.53,15.38,4.53,24.17s-1.28,16.75-3.84,23.89c-2.57,7.14-5.81,13.78-9.75,19.91-3.94,6.14-7.92,12.18-11.95,18.13-4.03,5.95-7.65,12.13-10.85,18.54-3.21,6.41-5.36,13.46-6.45,21.15h-36.25ZM285.06,454.07c-5.31,0-10.16-1.28-14.55-3.84-4.39-2.56-7.87-5.99-10.44-10.3-2.57-4.3-3.84-9.2-3.84-14.69s1.28-10.39,3.84-14.69c2.56-4.3,6.04-7.73,10.44-10.3,4.39-2.56,9.24-3.84,14.55-3.84s10.39,1.28,14.69,3.84c4.3,2.57,7.73,6,10.3,10.3,2.56,4.3,3.84,9.2,3.84,14.69s-1.28,10.39-3.84,14.69c-2.57,4.3-6,7.74-10.3,10.3-4.3,2.56-9.2,3.84-14.69,3.84Z"/>
  <path class="cls-1" d="M968.72,721.38h-81.58l-37.29-72.84-89.16-174.82-89.16,174.82-37.29,72.84h-81.58l37.29-72.84,170.74-335.07,170.74,335.07,37.29,72.84Z"/>
  <circle class="cls-1" cx="760.35" cy="156.13" r="134.76"/>
  <path class="cls-2" d="M745.16,186.38c0-9.29,1-17.42,3-24.39,2-6.97,4.52-13.13,7.57-18.5,3.04-5.37,6.09-10.29,9.13-14.78,3.04-4.48,5.56-8.85,7.57-13.1,2-4.24,3-8.77,3-13.58,0-6.57-2.13-11.45-6.37-14.66-4.25-3.2-9.81-4.81-16.7-4.81-7.53,0-14.06,1.84-19.58,5.53-5.53,3.69-10.05,7.61-13.58,11.77v-41.81c5.61-4.16,11.61-7.37,18.02-9.61,6.41-2.24,13.54-3.36,21.39-3.36,8.49,0,16.14,1.28,22.95,3.84,6.81,2.56,12.65,6.17,17.54,10.81,4.88,4.65,8.65,10.17,11.29,16.58,2.64,6.41,3.97,13.46,3.97,21.15s-1.12,14.66-3.36,20.91c-2.25,6.25-5.09,12.06-8.53,17.42-3.45,5.37-6.93,10.66-10.45,15.86-3.53,5.21-6.69,10.61-9.49,16.22-2.8,5.61-4.69,11.77-5.65,18.5h-31.72ZM761.02,270.48c-4.65,0-8.89-1.12-12.74-3.36-3.84-2.24-6.89-5.25-9.13-9.01-2.25-3.76-3.36-8.05-3.36-12.86s1.12-9.09,3.36-12.86c2.24-3.76,5.29-6.77,9.13-9.01,3.84-2.24,8.09-3.36,12.74-3.36s9.09,1.12,12.86,3.36c3.76,2.25,6.77,5.25,9.01,9.01,2.24,3.77,3.36,8.05,3.36,12.86s-1.12,9.09-3.36,12.86c-2.25,3.77-5.25,6.77-9.01,9.01-3.77,2.24-8.05,3.36-12.86,3.36Z"/>
</svg>