<?xml version="1.0" encoding="UTF-8"?>
<svg id="Laag_1" data-name="Laag 1" xmlns="http://www.w3.org/2000/svg" viewBox="0 0 1000 1000">
  <defs>
    <style>
      .cls-1 {
        fill: #132640;
        font-family: AzonixRegular, Azonix;
        font-size: 200px;
        stroke-width: 9px;
      }

      .cls-1, .cls-2 {
        stroke: #132640;
        stroke-miterlimit: 10;
      }

      .cls-2 {
        fill: none;
        stroke-width: 99px;
      }
    </style>
  </defs>
  <path class="cls-2" d="M850.14,681.37c29.52-55.46,46.24-118.76,46.24-185.97,0-218.92-177.47-396.38-396.38-396.38S103.62,276.49,103.62,495.4c0,54.73,11.09,106.87,31.15,154.29,60.17,142.27,201.04,242.09,365.23,242.09,84.29,0,162.43-26.31,226.67-71.16"/>
  <path class="cls-2" d="M359.97,270.67c-10.48,10.18-20.15,23.35-28.74,38.98-4.73,8.6-9.14,17.94-13.18,27.94"/>
  <path class="cls-2" d="M500.09,191.24s0,45.02,0,115.56c0,8.94,0,18.29,0,28.01"/>
  <text class="cls-1" transform="translate(206.6 566.7)"><tspan x="0" y="0">WWW</tspan></text>
  <path class="cls-2" d="M635.3,270.52c10.99,10.68,21.08,24.64,29.99,41.27,4.03,7.53,7.82,15.6,11.33,24.16"/>
  <path class="cls-2" d="M363.2,718.68c-10.48-10.18-20.15-23.35-28.74-38.98-4.73-8.6-9.14-17.94-13.18-27.94"/>
  <path class="cls-2" d="M503.33,798.11s0-45.02,0-115.56c0-8.94,0-18.29,0-28.01"/>
  <path class="cls-2" d="M638.53,718.84c10.99-10.68,21.08-24.64,29.99-41.27,4.03-7.53,7.82-15.6,11.33-24.16"/>
</svg>